<svg width="17" height="17" viewBox="0 0 17 17" fill="none" xmlns="http://www.w3.org/2000/svg">
<path fill-rule="evenodd" clip-rule="evenodd" d="M1.53491 0H15.4651C16.3093 0 17 0.695312 17 1.54541V15.4546C17 16.3047 16.3093 17 15.4651 17H1.53491C0.690674 17 0 16.3047 0 15.4546V1.54541C0 0.695312 0.690674 0 1.53491 0ZM13.1243 2.125C12.7021 2.125 12.3567 2.47266 12.3567 2.89795V4H15.2922V2.89795C15.2922 2.47266 14.947 2.125 14.5249 2.125H13.1243ZM15.2922 5H12.3567V10.0454C12.3567 10.4702 12.7021 10.8184 13.1243 10.8184H14.5249C14.7654 10.8184 14.981 10.7056 15.1218 10.5293C15.2283 10.3965 15.2922 10.228 15.2922 10.0454V5ZM4.54736 4V2.9751C4.54736 2.51123 4.16357 2.125 3.70312 2.125H2.45605C1.99561 2.125 1.61182 2.51123 1.61182 2.9751V4H4.54736ZM1.61182 5H4.54736V9.9873C4.54736 10.1968 4.46924 10.3901 4.34131 10.5396C4.18555 10.7212 3.95581 10.8374 3.70312 10.8374H2.45605C2.29712 10.8374 2.14746 10.7915 2.01953 10.7119C1.77661 10.5615 1.61182 10.291 1.61182 9.9873V5ZM15.9873 16.5215C16.4189 16.2642 16.7122 15.791 16.7122 15.2422V12.4795H0.287842V15.2422C0.287842 16.0532 0.940186 16.7295 1.76514 16.7295H15.2349C15.5081 16.7295 15.7659 16.6538 15.9873 16.5215Z" fill="#E5E5E5"/>
</svg>
